<svg xmlns="http://www.w3.org/2000/svg" xmlns:xlink="http://www.w3.org/1999/xlink" width="500" zoomAndPan="magnify" viewBox="0 0 375 374.999991" height="500" preserveAspectRatio="xMidYMid meet" version="1.2"><defs><clipPath id="97e9d4d8e8"><path d="M 113 112.5 L 255 112.5 L 255 262.5 L 113 262.5 Z M 113 112.5 "/></clipPath><clipPath id="7f9794d3f9"><path d="M 188 98.984375 L 197 98.984375 L 197 155 L 188 155 Z M 188 98.984375 "/></clipPath><clipPath id="56b99712d1"><path d="M 178 98.984375 L 187 98.984375 L 187 155 L 178 155 Z M 178 98.984375 "/></clipPath><clipPath id="abf53956a5"><path d="M 107.804688 169 L 164 169 L 164 178 L 107.804688 178 Z M 107.804688 169 "/></clipPath><clipPath id="e12746092c"><path d="M 107.804688 180 L 164 180 L 164 188 L 107.804688 188 Z M 107.804688 180 "/></clipPath><clipPath id="daafda7b96"><path d="M 178 202 L 187 202 L 187 258.734375 L 178 258.734375 Z M 178 202 "/></clipPath><clipPath id="b99544b31c"><path d="M 188 202 L 197 202 L 197 258.734375 L 188 258.734375 Z M 188 202 "/></clipPath><clipPath id="f2525f5412"><path d="M 211 180 L 267.554688 180 L 267.554688 188 L 211 188 Z M 211 180 "/></clipPath><clipPath id="f4f19b66e9"><path d="M 211 169 L 267.554688 169 L 267.554688 178 L 211 178 Z M 211 169 "/></clipPath><clipPath id="b925e25a90"><path d="M 124.554688 200 L 165 200 L 165 246.488281 L 124.554688 246.488281 Z M 124.554688 200 "/></clipPath></defs><g id="9377f5cfd4"><g clip-rule="nonzero" clip-path="url(#97e9d4d8e8)"><path style=" stroke:none;fill-rule:nonzero;fill:#004aad;fill-opacity:1;" d="M 144.972656 113.367188 C 149.050781 114.238281 158.101562 114.539062 161.007812 114.539062 C 163.914062 114.539062 167.125 116.578125 169.160156 116.277344 C 171.199219 115.976562 175.574219 116.277344 178.78125 116.847656 C 181.988281 117.414062 193.378906 118.34375 198.925781 118.34375 C 204.46875 118.34375 212.621094 121.25 216.699219 120.984375 C 220.777344 120.683594 244.992188 124.488281 247.300781 124.757812 C 249.636719 125.058594 254.582031 124.757812 254.582031 124.757812 C 254.582031 124.757812 254.882812 137.886719 254.582031 141.664062 C 254.285156 145.441406 254.285156 162.074219 254.285156 164.683594 C 254.285156 167.289062 250.207031 181.886719 249.910156 184.792969 C 249.609375 187.703125 251.078125 194.417969 252.246094 198.492188 C 253.414062 202.570312 248.46875 227.65625 249.039062 231.730469 C 249.609375 235.808594 248.46875 253.882812 246.703125 253.011719 C 244.964844 252.144531 243.792969 253.011719 241.757812 252.441406 C 239.71875 251.875 234.773438 253.011719 231.566406 251.273438 C 228.359375 249.535156 209.984375 250.707031 203.570312 250.707031 C 197.15625 250.707031 174.40625 248.964844 171.800781 248.667969 C 169.160156 248.367188 168.023438 253.042969 165.386719 254.511719 C 162.746094 255.980469 143.503906 254.210938 139.726562 253.042969 C 135.949219 251.875 132.144531 253.613281 130.40625 253.34375 C 128.667969 253.042969 129.539062 258.886719 129.238281 260.625 C 128.9375 262.363281 125.730469 262.363281 125.730469 262.363281 L 114.070312 261.496094 C 114.070312 261.496094 112.601562 254.511719 114.070312 252.742188 C 115.539062 250.976562 116.980469 236.40625 117.277344 230.292969 C 117.578125 224.179688 119.015625 208.714844 119.015625 205.207031 C 119.015625 201.699219 121.652344 195.285156 121.925781 188 C 122.222656 180.71875 125.132812 172.265625 126.300781 167.589844 C 127.46875 162.914062 128.339844 157.96875 128.039062 150.683594 C 127.738281 143.402344 128.90625 129.972656 130.375 127.667969 C 131.84375 125.359375 131.84375 112.5 131.84375 112.5 C 131.84375 112.5 140.898438 112.5 144.972656 113.367188 "/></g><path style="fill:none;stroke-width:3;stroke-linecap:round;stroke-linejoin:miter;stroke:#dc143c;stroke-opacity:1;stroke-miterlimit:4;" d="M 100.000212 59.999279 C 100.000212 59.672695 99.983267 59.34611 99.952457 59.019526 C 99.920106 58.694482 99.872351 58.370978 99.80765 58.049015 C 99.74449 57.728592 99.664385 57.411251 99.568874 57.09699 C 99.474904 56.78427 99.363988 56.476172 99.239208 56.172694 C 99.112888 55.870758 98.974244 55.574983 98.818654 55.28537 C 98.664605 54.997298 98.496691 54.716929 98.314913 54.444261 C 98.133134 54.171594 97.937492 53.90971 97.729525 53.655529 C 97.523099 53.402888 97.302809 53.161031 97.071735 52.928416 C 96.83912 52.697342 96.597263 52.477052 96.344622 52.270626 C 96.090441 52.062659 95.828557 51.867016 95.55589 51.685238 C 95.283222 51.50346 95.002853 51.335546 94.71324 51.181497 C 94.425168 51.025907 94.129393 50.887263 93.827456 50.760942 C 93.523979 50.636163 93.215881 50.525247 92.903161 50.431277 C 92.5889 50.335766 92.271558 50.255661 91.951136 50.192501 C 91.629173 50.1278 91.305669 50.080045 90.980625 50.047694 C 90.654041 50.015344 90.327456 49.999939 89.999331 49.999939 C 89.672747 49.999939 89.346162 50.015344 89.019578 50.047694 C 88.694534 50.080045 88.37103 50.1278 88.049067 50.192501 C 87.728645 50.255661 87.411303 50.335766 87.097042 50.431277 C 86.784322 50.525247 86.476224 50.636163 86.172747 50.760942 C 85.87081 50.887263 85.575035 51.025907 85.285423 51.181497 C 84.99735 51.335546 84.716981 51.50346 84.444313 51.685238 C 84.171646 51.867016 83.909762 52.062659 83.655581 52.270626 C 83.40294 52.477052 83.161083 52.697342 82.928468 52.928416 C 82.697394 53.161031 82.477104 53.402888 82.269137 53.655529 C 82.062711 53.90971 81.867069 54.171594 81.68529 54.444261 C 81.503512 54.716929 81.335598 54.997298 81.181549 55.28537 C 81.025959 55.574983 80.885775 55.870758 80.760995 56.172694 C 80.636215 56.476172 80.525299 56.78427 80.431329 57.09699 C 80.335819 57.411251 80.255713 57.728592 80.192553 58.049015 C 80.127852 58.370978 80.080097 58.694482 80.047746 59.019526 C 80.015396 59.34611 79.999991 59.672695 79.999991 59.999279 C 79.999991 60.327404 80.015396 60.653989 80.047746 60.980573 C 80.080097 61.305617 80.127852 61.629121 80.192553 61.951084 C 80.255713 62.271506 80.335819 62.588848 80.431329 62.903108 C 80.525299 63.215829 80.636215 63.523927 80.760995 63.827404 C 80.885775 64.129341 81.025959 64.425116 81.181549 64.714728 C 81.335598 65.0028 81.503512 65.28317 81.68529 65.555837 C 81.867069 65.828505 82.062711 66.090389 82.269137 66.34457 C 82.477104 66.597211 82.697394 66.839068 82.928468 67.071683 C 83.161083 67.302757 83.40294 67.523047 83.655581 67.729473 C 83.909762 67.93744 84.171646 68.133082 84.444313 68.314861 C 84.716981 68.496639 84.99735 68.664552 85.285423 68.818602 C 85.575035 68.974192 85.87081 69.112836 86.172747 69.239156 C 86.476224 69.363936 86.784322 69.474852 87.097042 69.568822 C 87.411303 69.664332 87.728645 69.744438 88.049067 69.807598 C 88.37103 69.872299 88.694534 69.920054 89.019578 69.952405 C 89.346162 69.983214 89.672747 70.00016 89.999331 70.00016 C 90.327456 70.00016 90.654041 69.983214 90.980625 69.952405 C 91.305669 69.920054 91.629173 69.872299 91.951136 69.807598 C 92.271558 69.744438 92.5889 69.664332 92.903161 69.568822 C 93.215881 69.474852 93.523979 69.363936 93.827456 69.239156 C 94.129393 69.112836 94.425168 68.974192 94.71324 68.818602 C 95.002853 68.664552 95.283222 68.496639 95.55589 68.314861 C 95.828557 68.133082 96.090441 67.93744 96.344622 67.729473 C 96.597263 67.523047 96.83912 67.302757 97.071735 67.071683 C 97.302809 66.839068 97.521559 66.597211 97.729525 66.34457 C 97.937492 66.090389 98.133134 65.828505 98.314913 65.555837 C 98.496691 65.28317 98.664605 65.0028 98.818654 64.714728 C 98.974244 64.425116 99.112888 64.129341 99.239208 63.827404 C 99.363988 63.523927 99.474904 63.215829 99.568874 62.903108 C 99.664385 62.588848 99.74449 62.271506 99.80765 61.951084 C 99.872351 61.629121 99.920106 61.305617 99.952457 60.980573 C 99.983267 60.653989 100.000212 60.327404 100.000212 59.999279 " transform="matrix(2.535714,0,0,2.535714,-40.532892,26.718353)"/><path style="fill:none;stroke-width:3;stroke-linecap:round;stroke-linejoin:miter;stroke:#dc143c;stroke-opacity:1;stroke-miterlimit:4;" d="M 95.999552 50.999719 L 95.999552 35.000158 " transform="matrix(2.535714,0,0,2.535714,-40.532892,26.718353)"/><g clip-rule="nonzero" clip-path="url(#7f9794d3f9)"><path style="fill:none;stroke-width:3;stroke-linecap:round;stroke-linejoin:miter;stroke:#dc143c;stroke-opacity:1;stroke-miterlimit:4;" d="M 92.000432 49.000159 L 92.000432 29.999718 " transform="matrix(2.535714,0,0,2.535714,-40.532892,26.718353)"/></g><g clip-rule="nonzero" clip-path="url(#56b99712d1)"><path style="fill:none;stroke-width:3;stroke-linecap:round;stroke-linejoin:miter;stroke:#dc143c;stroke-opacity:1;stroke-miterlimit:4;" d="M 87.999771 49.000159 L 87.999771 29.999718 " transform="matrix(2.535714,0,0,2.535714,-40.532892,26.718353)"/></g><path style="fill:none;stroke-width:3;stroke-linecap:round;stroke-linejoin:miter;stroke:#dc143c;stroke-opacity:1;stroke-miterlimit:4;" d="M 84.000651 50.999719 L 84.000651 35.000158 " transform="matrix(2.535714,0,0,2.535714,-40.532892,26.718353)"/><path style="fill:none;stroke-width:3;stroke-linecap:round;stroke-linejoin:miter;stroke:#dc143c;stroke-opacity:1;stroke-miterlimit:4;" d="M 80.999771 54.000599 L 65.00021 54.000599 " transform="matrix(2.535714,0,0,2.535714,-40.532892,26.718353)"/><g clip-rule="nonzero" clip-path="url(#abf53956a5)"><path style="fill:none;stroke-width:3;stroke-linecap:round;stroke-linejoin:miter;stroke:#dc143c;stroke-opacity:1;stroke-miterlimit:4;" d="M 79.000211 57.999719 L 59.99977 57.999719 " transform="matrix(2.535714,0,0,2.535714,-40.532892,26.718353)"/></g><g clip-rule="nonzero" clip-path="url(#e12746092c)"><path style="fill:none;stroke-width:3;stroke-linecap:round;stroke-linejoin:miter;stroke:#dc143c;stroke-opacity:1;stroke-miterlimit:4;" d="M 79.000211 62.00038 L 59.99977 62.00038 " transform="matrix(2.535714,0,0,2.535714,-40.532892,26.718353)"/></g><path style="fill:none;stroke-width:3;stroke-linecap:round;stroke-linejoin:miter;stroke:#dc143c;stroke-opacity:1;stroke-miterlimit:4;" d="M 80.999771 65.999499 L 65.00021 65.999499 " transform="matrix(2.535714,0,0,2.535714,-40.532892,26.718353)"/><path style="fill:none;stroke-width:3;stroke-linecap:round;stroke-linejoin:miter;stroke:#dc143c;stroke-opacity:1;stroke-miterlimit:4;" d="M 84.000651 69.00038 L 84.000651 84.99994 " transform="matrix(2.535714,0,0,2.535714,-40.532892,26.718353)"/><g clip-rule="nonzero" clip-path="url(#daafda7b96)"><path style="fill:none;stroke-width:3;stroke-linecap:round;stroke-linejoin:miter;stroke:#dc143c;stroke-opacity:1;stroke-miterlimit:4;" d="M 87.999771 70.99994 L 87.999771 90.000381 " transform="matrix(2.535714,0,0,2.535714,-40.532892,26.718353)"/></g><g clip-rule="nonzero" clip-path="url(#b99544b31c)"><path style="fill:none;stroke-width:3;stroke-linecap:round;stroke-linejoin:miter;stroke:#dc143c;stroke-opacity:1;stroke-miterlimit:4;" d="M 92.000432 70.99994 L 92.000432 90.000381 " transform="matrix(2.535714,0,0,2.535714,-40.532892,26.718353)"/></g><path style="fill:none;stroke-width:3;stroke-linecap:round;stroke-linejoin:miter;stroke:#dc143c;stroke-opacity:1;stroke-miterlimit:4;" d="M 95.999552 69.00038 L 95.999552 84.99994 " transform="matrix(2.535714,0,0,2.535714,-40.532892,26.718353)"/><path style="fill:none;stroke-width:3;stroke-linecap:round;stroke-linejoin:miter;stroke:#dc143c;stroke-opacity:1;stroke-miterlimit:4;" d="M 99.000432 65.999499 L 114.999993 65.999499 " transform="matrix(2.535714,0,0,2.535714,-40.532892,26.718353)"/><g clip-rule="nonzero" clip-path="url(#f2525f5412)"><path style="fill:none;stroke-width:3;stroke-linecap:round;stroke-linejoin:miter;stroke:#dc143c;stroke-opacity:1;stroke-miterlimit:4;" d="M 100.999992 62.00038 L 120.000433 62.00038 " transform="matrix(2.535714,0,0,2.535714,-40.532892,26.718353)"/></g><g clip-rule="nonzero" clip-path="url(#f4f19b66e9)"><path style="fill:none;stroke-width:3;stroke-linecap:round;stroke-linejoin:miter;stroke:#dc143c;stroke-opacity:1;stroke-miterlimit:4;" d="M 100.999992 57.999719 L 120.000433 57.999719 " transform="matrix(2.535714,0,0,2.535714,-40.532892,26.718353)"/></g><path style="fill:none;stroke-width:3;stroke-linecap:round;stroke-linejoin:miter;stroke:#dc143c;stroke-opacity:1;stroke-miterlimit:4;" d="M 99.000432 54.000599 L 114.999993 54.000599 " transform="matrix(2.535714,0,0,2.535714,-40.532892,26.718353)"/><g clip-rule="nonzero" clip-path="url(#b925e25a90)"><path style=" stroke:none;fill-rule:nonzero;fill:#ffffff;fill-opacity:1;" d="M 164.734375 221.101562 C 164.734375 221.097656 164.734375 221.09375 164.734375 221.09375 C 164.726562 220.984375 164.695312 220.882812 164.644531 220.792969 C 164.632812 220.777344 164.625 220.761719 164.617188 220.75 C 164.617188 220.75 164.617188 220.746094 164.617188 220.746094 C 164.605469 220.734375 164.597656 220.71875 164.585938 220.707031 C 164.585938 220.703125 164.582031 220.703125 164.582031 220.699219 C 164.570312 220.6875 164.558594 220.675781 164.550781 220.664062 C 164.550781 220.660156 164.550781 220.660156 164.546875 220.660156 C 164.539062 220.648438 164.527344 220.636719 164.515625 220.625 C 164.511719 220.625 164.511719 220.621094 164.511719 220.621094 L 157.402344 213.878906 C 157.265625 213.753906 157.089844 213.679688 156.902344 213.679688 L 153.285156 213.679688 L 158.3125 209.722656 C 158.464844 209.605469 158.5625 209.429688 158.585938 209.238281 C 158.605469 209.050781 158.554688 208.855469 158.433594 208.707031 L 151.863281 200.359375 C 151.617188 200.046875 151.164062 199.992188 150.847656 200.242188 L 137.175781 211.003906 C 137.027344 211.121094 136.929688 211.296875 136.90625 211.488281 C 136.882812 211.675781 136.9375 211.871094 137.054688 212.019531 L 138.363281 213.679688 L 132.386719 213.679688 C 132.203125 213.679688 132.023438 213.753906 131.890625 213.878906 L 124.78125 220.621094 C 124.777344 220.625 124.777344 220.625 124.773438 220.625 C 124.761719 220.636719 124.753906 220.648438 124.742188 220.660156 C 124.742188 220.660156 124.738281 220.664062 124.738281 220.664062 C 124.730469 220.675781 124.71875 220.6875 124.710938 220.699219 C 124.707031 220.703125 124.707031 220.703125 124.703125 220.707031 C 124.691406 220.71875 124.683594 220.734375 124.675781 220.746094 C 124.675781 220.746094 124.671875 220.75 124.671875 220.75 C 124.664062 220.761719 124.65625 220.777344 124.648438 220.789062 C 124.648438 220.792969 124.644531 220.792969 124.644531 220.792969 C 124.601562 220.871094 124.574219 220.953125 124.5625 221.042969 C 124.558594 221.058594 124.558594 221.078125 124.554688 221.09375 C 124.554688 221.09375 124.554688 221.097656 124.554688 221.101562 C 124.554688 221.117188 124.554688 221.132812 124.554688 221.148438 L 124.554688 225.96875 C 124.554688 226.367188 124.878906 226.691406 125.277344 226.691406 L 127.25 226.691406 L 127.25 245.582031 C 127.25 245.980469 127.574219 246.304688 127.972656 246.304688 L 161.316406 246.304688 C 161.714844 246.304688 162.039062 245.980469 162.039062 245.582031 L 162.039062 226.691406 L 164.011719 226.691406 C 164.414062 226.691406 164.738281 226.367188 164.738281 225.96875 L 164.738281 221.148438 C 164.734375 221.132812 164.734375 221.117188 164.734375 221.101562 Z M 151.175781 201.824219 L 156.847656 209.035156 L 150.746094 213.835938 L 147.234375 216.601562 L 142.503906 216.601562 L 138.640625 211.691406 Z M 132.675781 215.128906 L 139.503906 215.128906 L 140.664062 216.601562 L 138.179688 216.601562 C 137.777344 216.601562 137.453125 216.925781 137.453125 217.328125 C 137.453125 217.726562 137.777344 218.050781 138.179688 218.050781 L 151.109375 218.050781 C 151.511719 218.050781 151.835938 217.726562 151.835938 217.328125 C 151.835938 216.925781 151.511719 216.601562 151.109375 216.601562 L 149.574219 216.601562 L 151.445312 215.128906 L 156.613281 215.128906 L 162.195312 220.421875 L 127.09375 220.421875 Z M 160.59375 244.859375 L 128.699219 244.859375 L 128.699219 226.691406 L 160.59375 226.691406 Z M 163.289062 225.246094 L 126 225.246094 L 126 221.871094 L 163.289062 221.871094 Z M 163.289062 225.246094 "/></g></g></svg>